<svg xmlns="http://www.w3.org/2000/svg" viewBox="0 0 64 64" width="64" height="64">
  <defs>
    <linearGradient id="iconGradient" x1="0%" y1="0%" x2="100%" y2="100%">
      <stop offset="0%" stop-color="#22d3ee" />
      <stop offset="50%" stop-color="#6366f1" />
      <stop offset="100%" stop-color="#f472b6" />
    </linearGradient>
  </defs>

  <circle cx="32" cy="32" r="28" fill="rgba(15,23,42,0.85)" />
  <g transform="translate(32,32) scale(1.3)">
    <path d="M -8 -18 L -3 -18 L -3 18 L -8 18 Z" fill="#f8fafc" />
    <path d="M -3 -18 L 12 -5 C 14 -3 14 1 12 3 L -3 16 L -3 8 L 8 1 C 9 0.3 9 -1.3 8 -2 L -3 -9 Z" fill="url(#iconGradient)" />
    <path d="M -3 18 L 12 5 C 14 3.5 13.2 0.5 10.8 -1 L -0.8 -8 L -3 -5.4 L 6 -0.4 C 7 0.3 7 1.7 6 2.4 L -3 9.2 Z" fill="#e2e8f0" />
    <circle cx="-2" cy="0" r="3.5" fill="url(#iconGradient)" />
  </g>
</svg>
